<svg xmlns="http://www.w3.org/2000/svg" version="1.2" viewBox="0 0 640 480">
  <path class="s0" fill="#fff" d="M634.7 250.6c-1.5-1.6-.8-3.7 0-4.8 1.4-2.1 1.9-4.3 2.3-6.6.5-1 .7-2.1.6-3.2 1.1-2.9 0-5.9.4-8.9.3-3-1.9-5.5-1.5-8.5-2.6.4-3.3 1.7-2.5 3.9.2.6 1.6 2.2-.8 1.7q-.1-.1-.2-.3c-.6-.7-1.4-1.3-1.4-2.3v-.2c.1-.8-.6-1.2-.9-1.9q.1-.1.2-.3c.8-1.9 1.9-3.8 3.2-5.5.1-1-.7-1.9-.9-2.8-.7-.4-1-.4-1 .5-.1 1.6-.5 2.9-1.9 3.8-.1-1.2 0-2.4-1-3.3-1.1-.6-1-1.5-.4-2.4q-.1-.1-.1-.3l.1.1c.6-1.1.1-2.5.8-3.6-.6-.1-1-.3-1.3-.9-.9-1.3-1.7-2.6-2.8-3.8-.8-.9-1.7-2.4-3.3-.9-.8-.9 1.9-1.9-.2-2.7l-1.5 1.5q-.2-.1-.3 0h-.1c-2.1-1.1-3.6-2.8-5-4.5.1-1.2 2.3-.5 2-2.1q.2 0 .3-.1c-1-.9-1.8-1.9-3-2.4-1-1.1-1.8-2.3-3.4-2.5-.8-1.7-2.5-2.2-3.9-3.1-1.9-.7-3.2-2.5-5.2-3-1.3-.7-2.3-1.9-3.8-1.9-2.2-1.3-4.3-2.6-6.8-3.4-.2.3-.5.7-.8.8-.7.3-1.4.8-2.3.6-.3-.1-.3-.6-.1-.9.5-.9 1.4-.8 2.2-.8h.1c-1.2-1.2-2.9-1.3-4.3-2.1s-2.7-1.6-4.4-1.5c.6 1.7 1.9 1.9 3.3 1.9h.5c-.3.5-.9 1 0 1.4.9.5.6 1 .2 1.6q-.3 0-.6-.1c-.8-.4-1.1-1.7-2.1-1.8q-.1-.1-.3-.1v1c-1.3.7-2.5.3-3.6-.3-1-.5-1.5-.5-1.6.6v.2q-.1.2-.1.4l-.3.3q-.2.2-.5.4c-2.5.2-3.7-1.9-5.4-3q.2-.3.5-.5-.1-.2-.1-.3c-.4-1-1.4-1-1.7-.3-1.2 2.3-3.4 2.1-5.4 2.5l-.1-.1-.4-.4c.3-.2.9-.5.9-.7-.2-2.2 1.4-3.1 2.9-4.1h.7c.7.1 1.3.1 1.9.4.7.4.9-.2.8-.8-1.5-.4-.2-1.8-.9-2.4-.7-.4-1.3-.4-2 0q-.7-.5-1.4-1.1-.2-.2-.4-.3c-.3 1.2-1.1 1.3-1.9 1.3-.5 0-1.1-.1-1.5.2-.3-1.3-1.5-1.8-2.4-2.6-.5-.1-.6.4-1 .5h-.2c-.8-.1-2-1.1-2.2.5v.5c-.7-.2-1.6 0-1.1-1.3.3-.6 0-1.4-.4-2-1.5-.4-3-1.2-4.7-1-1.7-1.3-2.7.1-3.9 1-1-1.3-1.4-3.3-3.7-3l-1-.4c-2.1.6-2.6 2-1.1 3.2.8.6.4 1.6 1 2.1q.1.2.3.3.1.1.2.1c-.7 1-.6 1.7.8 1.5 1.5-.2 2.3.5 2.7 1.9v.7c-.1.8-.3 1.6-1.3 2-.9.5-1.2-.4-1.7-.8.4-1.4-1.4-1.9-1.4-3.2 0-.2-.6-.2-.7.1-.3.9-1 .8-1.5.7q-.2 0-.3-.1-.2 0-.4.1-.3.1-.5.1c-1.1-.5-1.9-1.3-2.8-2.1q.1-.2.2-.3c.5-.3 1.5-.1 1.2-1.1 1.4-.4 2.2-1.2 1.1-2.6-.6-.8-.6-1 .4-1.3.5-.1.3-.6 0-.9q-.1-.4-.1-.9c-1.6-.7-3.4-1-5.2-1-.3-.7-.9-.6-1.5-.4q-.7 0-1.4-.1c-.3-1.2-1.2-.8-2-.8-3.3-1.1-6.6-1.5-10-2-1.9-1-4.3-.2-6.2-1.5-.7-.4-1 2.5-2 .3-.1-.2-1.1.2-1.1.6.1 2.1-1.6 3.2-2.2 4.9q-.2-.3-.4-.4c-.4-.4-.9-.3-1.4-.2q-.4.1-.7.2l-1.4-1c0-.8 0-1.5.2-2.2.1-.6.5-1.2 1.2-1.6.9 1.3 1.5-.6 2.4-.4.1.1-.2-.7-.4-1.1l-2.4-.4c-1 0-2 .2-3-.5q-.4-.1-.8-.1c-1.6 0-.9 1.1-.8 1.9v.3c.2 1.4-1.3 2.3-1.1 3.6 0 0-.3 0-.5.1-1.1-.2-2.2-.5-3.3-.2q-.3 0-.6.1v-1.4q0-.3.1-.6c.2-.6.5-1.1.7-1.6.2-.7.4-1.3.7-1.6q.2-.2.5-.3c.4-.1.8.1 1.5.4.9.6.8-.5.8-1.1-1.3-.2-2.5-.8-3.8-.4q-2.2-.3-4.3-.6-1-.3-1.9-.6v.2h-.2c-2.3-.5-2.7.9-2.6 2.7.4 1.2.2 2.3-.5 3.4q-.2-.3-.3-.6c-.7-1.5-.7-3.2-2-4.4l-.2-.2c.8-.6 1.5-1.2 0-1.9l-3.8-.4q.6.9 1.2 1.9c-.7.6-1.3.3-2-.1v.1-.1c-.2-.3-.1-.9-.7-.8s-.8.7-1 1.2c-1.3 1.4-2.4 1.3-3.3-.5.2-.3.3-.6.2-1v-.3c-.1-.4-.3-.8-.6-1.5-.7 0-1.3-.1-1.4.8-.1 1.1-.9.6-1.5.7-.7-.5-.2-1.9-1.1-1.9-1.6-.2-3.1-1-4.7-.5q-.2-.1-.4 0c-1.3-.2-2.5-.9-3.8-.5.6.8.6 2.2 2 2q.1 0 .3-.1c.1.8.2 1.5-.2 2.3-1-.1-.7-1.7-1.9-1.7.2 1.1 1.3 1.9.7 3.7-.8-2.4-4-3.2-2.1-6.1q-.1 0-.3-.1c-1-1-2.2-.5-3.4-.5-.8-.8-1.9-.6-2.7-.4-1.9.4-3.7.6-5.4-.5-1.1-.2-2.3.3-3.3-.4q0 .2-.1.3t-.3.1c-1.1.6-1.5 1.4-.7 2.6.1-.3.2-.4.4-.4.5-.1 1.2.3 1.5-.2q.1-.2.2-.5c1.9.2 0 1.7.8 2.3q-.1.1-.3.2c-1.3.8-1.7-.4-2.4-1.2l-.2-.2q-.6.3-1.1.6-.1 0-.1.1l-2.2-3.8c-.9-.4-1.8-.6-2.8-.6l.1.2h-.2c-.8-.1-1.5-.2-1.8 1-.3 1-.1 1.6.7 2.1l.2.2q.3.4.5.9-.3.1-.5.2-1.1.4-2.1.8 0 .1-.1.1c-.6-.1-1-.4-1.1-1.1l.3-.3q0-.1-.1-.1.1 0 .1-.1c.1-.3-.2-.5-.5-.8-.5-.6-1.2-1 .1-1.7q.4-.2.5-.4-.2-.4-.3-.7c-.2-.2-.5-.4-.6-.7h-.9c-3-.7-6.1-.5-9.2-.4h-6.6c-2.1-.1-1.1 2.3-2.4 2.9q-.6 0-1.2-.2c-1.2-.3-2.3-1.1-3.6-.9 0-1 1-2.7-1.4-2.2q-.2-.1-.4 0h-.1c-.1.2-.2.5-.3.5-3.2.2-5.5 1.7-6.9 4.6-.2-.7.5-1.8-1-1.8-1-.1-.4-1-.4-1.5q-.1-.1-.1-.2h.2c.4-.5.4-1.1.4-1.8-1.5-.6-3.5-.6-4.3.5-.9 1-1.3.9-2.1.4-.7-.4-1.2-.1-1.8.1-.1-.8-.8-1.1-1.4-1.1-1.9 0-3.9-.7-5.8-.3-1.1 1.2-2 .5-2.9-.2q.1.2 0 .3h-.1c-.8-.1-2-.5-2.2.4.2-.9 1.4-.5 2.2-.4q0-.1.1-.3c-3.5-.5-7.1-.3-10.6-.3-1.3 0-3-.5-3.7.4-1.2 1.6-1.6-.1-2.4-.3-1.8-.2-3.7-.7-5.3.1-1.1.5-1.9.5-2.9.3-3.8-.7-7.7-.4-11.5-.4H335c-1.4-.1-2.9-.5-4.3.3q-1.3-.5-1.5.9c-1.4-.4-2.5-1.9-4.2-.9q-.1 0-.2-.1c-1-.6-2.1-.1-3.1-.2l-.6.4c-1.6-.1-3.2-.2-4.8 0H314c-.3.9.8 1.1.7 1.5-.2.8.5 1.9-.8 2.4-.9.3-1.8-.3-1.8-1 .3-3.4-1.8-2.9-3.8-2.8h-.2q.1-.1.1-.2-2.7.2-5.3.4c-3-.9-5.8.1-8.7.2l-6.2.4c-2.8-.6-5.4.8-8.2.6-3.2-.3-6.4.3-9.6.5-1 0-1.8.2-1.9 1.3-1 .9-1.1.9-1.4-.2-.1-1-.8-.8-1.4-.8l-10.6 1c-2.1-.1-4.3-.1-6.4.4q-.1-.1-.4 0-7.8.8-15.7 1.6c-1.3-.1-2.6-.3-3.8.4-.9-.1-1.7-.1-2.4.5-1.1.5-2.2-.9-3.4 0q-.5 0-.9.1c-1.2-.2-2.3-.2-3.4.4-.9-.4-1.6.3-2.4.5-.8-.6-1.7-.2-2.5-.1q-6.6.8-13.3 1.5c-2.1-.6-4.1.3-6 .7-1.7.4-3.4-.1-5 .5q-.3 0-.5.3c-.9.2-1.9.8-2.7.7-2-.3-3.7 0-5.4 1.1-.9-1.1-1.7-.2-2.5 0-1.4.4-2.9 1.4-4.1 1.2-3.4-.8-6.5.5-9.8.8-2.8-.1-5.4.9-8.2 1.4-.8 0-1.4.7-2.3.5-1.6.4-3.3 0-4.9.9-1.9 1.3-4.3.4-6.3 1.4q-7.3 1.7-14.7 3.5c-.9-.1-1.7.2-2.4.8-3.8.6-7.3 2.2-11 3l-2.8 1q.15-.15.3 0h-.3c-.6.5-1.2.9-2.1 1-2.2.1-3.9 1.8-6.1 1.9-1.2-.3-1.9.7-3 .8-.8.5-2 .2-2.7 1.1l-1 .4c-1.7-.2-2.7 1.5-4.2 1.9-.4-.1-.7-.3-1.2 0l-1 .4c-.6 1.1-2 .2-2.8 1-.5.2-.8.5-1 1q-.6 0-1.3.1c.3.4.8.7.3 1.3-.5.5-.9-.1-1.4-.1l-.4.6h-1c-.7.9-.2 1.9-.5 2.9-.3.2-.4.6-.5.9 0 .6.1 1.2-.1 1.6q-.1.2-.3.4v.1q-.4 0-.7-.2c-.9-.3-1-1.3-1.1-2.1 0-2.3-1.6-2-3-2.2-.8 1.3.8 1.5.9 2.4-1 .7-1.9-.5-2.8-.3-.9-.2-1.7-.2-2.4.5-.9-.2-1.7 0-2.4.3-1.3.6-3 .7-3.4 2.5q-.2-.1-.4-.1c-.9-.8-1.4.1-2 .5-2.4 1-4.7 2-7.1 2.9-2.8 1.1-5.1 2.8-7.9 3.8-1.3.5-3 1-3.2 2.9l-1.4-.4c-.6.5-.9 1.4-1.9 1.4-2.5.7-4.3 2.7-6.8 3.2-1.6.4-2.4 1.9-3.8 2.5q-1 .5-2 .9c-1.1.8-1.9 2-3.2 2.5-.7.4-1.5.7-1.9 1.4.8 1.2 1.5 2.5 1.8 3.9q-.1.2-.2.5c-.4 1.1-1.2 1.6-2.6.9-1.3-.8-1.7-2.2-2.4-3.4-.6.8-2 1.1-1.9 2.4 1 .3 1.5 1.1 1.9 1.9.9-.1 1 .6 1.4 1.1v.1q0 .2.1.4-.1.1-.1.2-.3.5-.5 1.1.6-.3.6-1 0 .7-.6 1c-1.4 1.5-.5 3.2-.6 4.8-.1.7.2 1.4.2 2.1h-.1c-.2-.1-.4 0-.7.1-.6.2-1.2.7-2.1.1 1.6-1.6 1.3-3.5.4-5.5-.5-.2-.2.9-.6 1.1h-.2c-.3-.9-.1-1.8.3-2.7q.3 0 .5-.2c.5-.4.7-1.2 1.6-1.1.5.1.2-.4 0-.8q-.1-.1-.1-.2c-.7 0-1.2-.3-1.6-.7l-.4-.4v-1.3c-.8-.2-1.2.6-1.8 1-.8.4-.6 1.2-.6 1.9 0 .3.1.6-.6.6-2.8-.1-2.9 3.5-5.3 4l.2.4c-.6 1.4-2.1 2.6-3.1 3.3-2.2 1.6-2.9 3.9-4.1 5.9q-.7 1.5-1.4 2.9c-.3.1-.5.2-.4.6q-.3 1.1-.6 2.3c-.6 1-.7 2.2-1 3.4-.5.9-.5 1.9-.4 2.9 0 2.7-.5 5.5.6 8.1-.2.6.1 1 .3 1.5.3 0 .8.2.9 0 1-.8.9-1.6.6-2.5-.2-.5-.4-.9-.5-1.4 1.5.5.4-1.5 1.4-1.4q.3.3.5.6c1.3 1.8 2.1 3.9 2.1 5.9 0 1.7.9 1.4 1.8 1.7.3 1.2 1.4 2 1.5 3.3v.1c-.8.5-1.5.9-2-.3-.4-.9-1.1-1.4-1.9-1.7.3-.6.6-1.3-.1-1.7-.9-.5-.7.5-1 .9-.2.2-.6.2-.8.4q-.5-.1-1-.1c-.7.9-.2 1.8.5 2.1 1.2.6 1.7 1.4 1.4 2.8.1 1.2.2 2.5 1.5 3.2q.7 1 1.3 2c1.1 2.1 2.6 3.9 3.9 5.8.2.6.3 1.2.9 1.5 1 1.5 2.3 2.8 3.9 3.7q.2.3.4.5c.7 2 2.5 3 4 4.2.4.7 1.1 1.1 1.8 1.6 1.1 1.8 3.5 2.2 4.8 3.9 6 4.4 11.9 8.8 18.7 11.9l3 2.7c2.5 2.6 5 5.3 9 5.4.9.6 1.8 1 2.9 1 2.9 1.7 6.2 2 9.3 3.2 7.6 2.9 15.8 4.2 23.6 6.4.9.3 1.7.2 2.4-.4.1.9.8 1 1.5 1.2 7.6 2.1 15.3 3.3 23.1 4.5 1.3.7 2.8.4 4.2.6 12.2 2.2 24.5 3.2 36.8 4.1 1.1 0 2.2.3 3.2-.4 1.3.4 2.6.6 4 .7 16.8 1.2 33.6 2.5 50.4 5 8.8 1.3 17.6 2.5 26.6 2.9 7.5.3 15 1.2 22.6 1.8l19.4 1.6c5 .5 10 .9 15 .9 9 .6 17.9.4 26.9.4 11.6 0 23.1.2 34.7 0 15.6-.3 31.1-.4 46.7-.9 1.5.1 2.9.5 4.3 0 3.6.5 7.3-.1 10.9.2 5.7.5 11.5.4 17.2.2 19.4-.7 38.6-2.8 57.9-4.5 10.1-.9 20.1-2 30.2-3.1 16.7-1.8 33.1-5.3 49.2-10.1 2.7-1.1 5.9-1.2 8.2-3.3q1-.4 1.9-.9c2.4-1 4.9-1.5 7.2-2.8.7-.4.7-1.7 1.7-1.4 2.3.6 3.7-1.1 5.5-2.1 1.1-1.4 2.4-2.5 4.4-2.6.3 0 .7-.3 1-.5 8.1-5.2 14.7-11.9 19.3-20.4 2.3-4.4 4.9-8.7 7.3-13.1 1.4-2.5 3.2-4.9 3.1-8-.2-5.8-1-11.4-5.3-15.9m-14-15.2c-4.5-3.9-9.5-7.2-14.6-10.3-4.5-2.6-9.1-5-13.3-8.1-3.6-2.7-7.4-5.2-11.2-7.7-3.1-2.2-6.5-4.1-9.8-6q-.5-.3-.9-.5-2.5-1.3-4.9-2.7-.2-.1-.5-.2c-3.5-2.9-7.6-5.1-12-6.7l-.4-.4q-.6-.3-1.2-.4-.3-.2-.7-.3c-7.6-3.6-15.4-6.6-23.5-9-8.3-2.5-16.8-4.2-25.3-5.9q-10-1.9-20.1-3.7c-10.1-1.7-20-4.4-30-6.3-15.7-2.9-31.3-6.1-47.2-7.3-9-.7-18-1.1-27-1.7-9.9-.6-19.8-1.4-29.8-2.1-5.2-.4-10.5-.6-15.7-.8q-9.3-.1-18.7-.1c-.5-.7-1.5-.1-2.2-.6l-.2-.2c3-.2 6-.3 9 0h.1q1.4-.1 2.8-.1c.3-.2.4-.4.5-.7.2-.7.1-1.6 1-2.2-.3 1.2-.5 2 .7 2.3h.7c1.9.1 3.8-.1 5.7.1h2.1q.4.1.9.1v.4q4.5-.2 9 0c5 .2 10.1 0 15.1 0h17.1l14.8.2q8.4.2 16.9.3h.4c1.6.5 3.2 0 4.8.1.6.3 1.3.5 2 .5 1.5 0 3-.4 4.5-.2q.1.1.2.1h1.3q1.8.3 3.7.4h.3q3 .1 5.9.1h1.8q.4 0 .8.1c.3.1.7.2 1.1.3h.3c3.1.5 6.1-.3 9.2.5 3 .6 6 1 9.1 1h1.1q6.4.7 12.8 1.5.7.1 1.3.2l8.4 1.2c.6.3 1.2.5 1.9.4q.9 0 1.9.1 1.2.2 2.4.5c.3-.1.8-.1 1-.3.1-.1.2-.4-.2-.9-.5-.6-1.1-1.2-1.6-1.7h-.1v-.1c-.1-.5-1.1-.7-.6-1.5.5-.6 1.3-.4 1.9-.3h.1c.8 1 1.6.2 2.4-.1q.1.1.1.2c1.1 1.3 1.2 3 1.6 4.5l.2.6q.2.1.4.1c2.1.6 4.3.6 6.5 1.1 2.7.7 5.6 1.5 8.6.9q.1 0 .3-.1c.7 1.3 2 1.1 3.1 1.2 3 .3 6 .7 8.9 1.7q.4.2.9.3c1.4.4 2.9.4 4.4.5.7.2 1.4.7 2.2.6q.1-.1.2-.1c1.5.5 3.3.2 4.8 1q.7.2 1.5.3 3.6.8 7.3 1.6h.3l5.2 1q.3.2.6.3c2.1 1 4.5.8 6.6 1.4q.5.2.9.3c.6.6 1.3.3 2 .4l.4.2c2.2.9 4.6.7 6.7 1.8 1.6.5 3.2 1.1 4.9 1.3q.5 0 .9.1 2.5 1.3 5.4 1.8c2-.3 3.6.5 5.2 1.5q.1 0 .2-.1t.1-.2c.5-.7-.8-2.2.8-2.4q.3 0 .5.1c.4.1.3.6.3 1.1v.6h.1q.1.1.1.2.1.2.3.2l.5.5 3.8-.4q.2.1.4.4c.2.3.2.6-.1.8-2.5 1.7-.2 1.9.8 2.3.7.4 1.4.6 2.2.8q.3.6 1 .5c1.2.6 2.3 1.3 3.7 1.4 2.2.1 3.5 2.1 5.5 2.7q.2 0 .4.1h.1l.4.2 6.2 3.6c.3 0 .6 0 .8-.1.3-.3-.1-.6-.3-.9q.1-.2.1-.4l.4-1.4v-.2q.5.1.9.1c.5-1.3.2-2.9.7-4.2.2-.5.6-.9 1.1-1.2q0-.1.1-.1t.1-.1c1.9 1.1-.1 2.2 0 3.3h.9l.2.2c.6.4 1 1.2.9 1.9-.3 2 .6 2.4 1.8 2.3q.5 0 1-.1c.5.7 1 1.4 1 2.3q-.1.1-.1.2c-1.3 2.1-2.3-.4-3.4-.5-.9-.3-1.1-2.1-1.2-1.8-.5 1.6-2.1.8-2.9 1.4q-.1.1-.2.3 2.4 1.5 4.8 2.9c1.6 0 2.4 1 2.9 2.4q.5.4 1 .9.6.2 1.1.6c.4.3.8.7 1.1 1.2q.5.4.9.8.5.4 1.1.7c-.3-1.1-.3-2.1.7-2.8 1 1.3 2.5 1.6 3.9 1.9h.4c-.2 1.2-.2 2.5-2.1 1.5-.7-.4-1.8-.2-2.3.9 1.6 1.7 2.6 3.8 3.7 5.8v.2q.6 2.2 1.1 4.5c.2.8.2 1.6.9 2.1q.3-.1.7-.2c.4-.2.9-.2 1.2.3q0 .1.1.4c-.3.7-.7 1.4-1.5 1.7-.7 1.2-.5 2.5-.5 3.7 0 3.7-.7 7.2-1.7 10.6-.3 1.5-.7 1.9-2.1.7m12.5 2.3h-.1zm-6.7-31.2h-.1zm3 16.7c.6.5 1 1 .6 1.8q0 .1-.1.3c-2-.2-1.3-1.2-.8-2q.1-.2.1-.3zm3.8 14.5h-.1zM588.2 277q-1.7 1.2-3.3 2.5c-1 .4-1.9.8-2.5 1.8q-4.1 2.6-8.1 5.3-1 .5-1.9 1 0 .5.1.9c.4 1 .9 1.9.5 3-1.4 1.3-2.3.6-3-.8-.3-.4-.2-1.1-1-1.1-1.5 1.4-3.3 2.3-5.2 2.9q-1.3.7-2.5 1.3c-1.8.8-3.6 1.5-5.4 2.4-4.3 1.9-8.9 3.3-13.3 5-.3.1-.6.2-.9.4-1.7 1.4-4.1.4-5.8 1.8-10.3 2.8-20.6 5.3-31.1 7.2-11.4 2-22.9 2.9-34.4 3.1l-39.7.3c-10.5 0-21-.1-31.4 0-13.4.1-26.7-.6-40-1.1-7.4-.2-14.9-.4-22.3-.5-8.5-.1-16.9-.9-25.4-1.2-8.6-.3-17.2-.5-25.8-.5-12.1 0-24.3-.4-36.4-1.1-13.4-.7-26.8-2.2-40.1-3.5-15.5-1.6-30.9-3-46.4-3.9-6.8-.3-13.2-2.1-19.6-3.7-10.6-2.6-20.8-6.5-30.9-10.4-2.1-.8-4.1-2-6.4-2.4-1.2-.7-2.5-1.3-3.8-1.5h-.1c-2.8-.9-5.7-1.3-8.6-2.2-4.7-1.4-9.6-2.1-14.4-3.1-9.3-2.6-18.2-6.4-27.1-10.4-6.6-3-8.5-12.3-7.3-17.9 2-10 9.9-15 16.7-20.8 3.4-3 7.2-5.6 11.5-7.4 1.8-.6 3.4-1.5 4.8-2.8 3.5-1.7 7.1-3.4 10.6-4.9 5.5-2.4 10.9-4.9 16.4-7 10.9-4.1 22.1-7 33.4-9.7l21-4.8c5.9-1.3 11.9-2.2 17.7-3.9 5.7-1.7 11.6-2.5 17.4-3.6 1.2-.3 2.3-.5 3.3-1.2 1.1.3 2.1.2 3.1-.2l.4-.2c4.1-.2 8.2-1.1 12.3-1.6 4.4-.5 9-.8 13.5-1.3q10.9-1.2 21.8-2.5c8.6-1 17.3-.8 25.9-.9 10.1-.3 20.1-.8 30.2-1.1 7.9-.2 15.9-.1 23.8-.4 3.8-.1 7.6 0 11.4 0 3.4 0 6.9.6 10.4.6q.4.2.9.2c2.1.4 4.3.3 6.4.3 6.7.5 13.4 1.1 20.1 1.6 12.6 1 25.4 1.3 38 2.9 3 .4 6 1.2 9.1.8 2.2.6 4.3 1.3 6.6 1.3 6.3 1.5 12.7 2.3 19 3.3 5.8 1 11.5 2.2 17.3 3.2 6.9 1.1 13.7 3.3 20.5 5 2.8.7 5.6 1.4 8.3 2 1 .6 1.9 1 3 1q5.9 1.7 11.9 3.3 3.1 1 6.3 2 .3 0 .5.1c4.4 2.3 9.4 3 13.9 5 3.4 1.6 6.6 3.6 10.2 4.9 3.2 1.1 6 3.1 9.4 3.9l3.4 1.4c2.9 1.1 5.5 2.8 8.6 3.4 1.2.2 2 1.4 3.4 1.4 5.5 2.8 11.2 5.1 16.6 8.1 4.4 2.5 8.9 4.8 13.4 7.3.5.3 1 .9 1.5 1.4q1.5 2 2.5 4.3.7 1.4 1.5 2.8c.8 1.5 1.4 3 1.4 4.7 0 2.3-.1 4.6-.5 6.8-.2 5.2-3.4 8.5-7.3 11.3-2.8 2-5.4 4.3-8 6.4m0-97.7c.1.3.4.5.5.8.1.2.1.5-.2.9-.5.9-1 1.9-.6 3.1.1.7-.7.3-1.1.4q-.1-.1-.1-.2-1.5-1.6-2.1-3.7-.1-.2-.2-.3c1.1-1.1 2.2-1.9 3.8-1m-23.6-2.1q.2 0 .4.1-.2-.1-.4-.1m6.4-1.2c.4-.1.8 0 .7.6 0 .4-.2 1-.7 1.1-.6.1-.9 0-1-.4q-.1-.2-.1-.5.3-.4.6-.9.2.1.5.1m-13.5-5.8c-.1-1.1 1.9-1.7.5-2.9q.2-.1.4-.1c.4 0 .9 0 1.2-.4q.1-.1.2-.3c1 .9 1.9 2 2.9 2.8.5.5.1.9.1 1.3 0 .7 1.5.9.6 1.9-1.1 1.2-1.1-.5-1.6-.7-.8-.4-1.6-.4-2.3-.1q-.2-.1-.4-.1-.1-.1-.2-.1c-.5.1-1.1 0-1.5.6 1.3 2.1-1.5 1-1.4 2.3-.8-1.4 0-2.1.5-2.8-.5-1.2-1-.7-1.3.1-.3.6-.5 1.3-1.3 1.4h-.3q-.1-.1-.3-.2c-.2-.1-.1-.3.1-.5.4-.2.8-.6-.2-1.2-.9-.5.6-1.1 1.4-1.5l.1-.1c.8.7 1.8.6 2.8.6m-22.3-.2q.1 0 .2.1 0 .1-.1.2-.1-.2-.1-.3m-21.5-12.5c.2-.5-.2-1.5.8-1.7.6-.1.7.3.8.7.1.3.2.6.5.6.5.7.7 1.6 1.4 2.1l-.2.2q-.1.1-.2.3-.2 0-.4-.1c-.6-.1-1.2-.3-1.7.4q-.5 0-1 .1h-.4c.1-.9.1-1.8.4-2.6m-3.5.4c.1-.5.3-1.1 1-1.2.5.3.6.7.6 1.2 0 .7-.5 1-1.1.9-.4 0-.6-.5-.5-.9m-19-4.9.1.1h-.1zm-13.7 5v-.1zm-.1-.6h.1zm-134.8-13h.2zm9.2.8h.1q-.1 0-.1.1zm-9.8 3.7.4.6q-.4 0-.7-.2.2-.1.3-.4m-7.8 0v.1zm37.8-.1q-.3-.1-.7-.2.4.1.7.2m-3.4-2.1c.1.9.5 1.3 1.1 1.5-.6-.2-1-.6-1.1-1.5m16.4-2.3q-.1 0-.2.1v-.2q.1 0 .2.1m-42.3-1.3c-.1.3-.1.6-.1.9-.1-.3 0-.6.1-.9M328 147q0 .1-.1.1 0-.1.1-.1m-218.6 36.7c-2 .4-3.5 2.3-5.8 1.9-1.5 1.3-3.6 1.1-5.3 1.7l-8.2 3-.2-.6q-.1-.2-.2-.3c.5-.5 1.2-.7 1.9-1 .5-.1 1-.3 1.4-.5q.3-.2.7-.4.1 0 .3-.1c.8.1 1.5-.4 2.3-.6q.1-.1.3-.1.3-.1.7-.2l.2-.2.3-.3 2.8-1h1q.7-.3 1.5-.6h.1q4.2-1.6 8.5-3.2 2.9-1 5.8-1.9l19.6-5.4c1.7-.3 3.4-.6 5.1-1.1q.3-.1.7-.2c3.7-.8 7.4-1.5 11.2-2.2 6.1-1.1 12.3-2.1 18.4-3.2l1.2-.2c2.6-.6 5.2-1.1 7.9-1.2h.1q.2.3.5.5c-3.1 1.1-6.4 1.7-9.6 2-5.3 1.2-10.5 2.5-15.8 3.7-9.9 2.2-19.9 4.2-29.7 6.8-4.3 1.1-8.7 2.1-13 3.4-1.4.9-3.1 1.2-4.7 1.5m-42.9 15.6c0-.2 0-.5-.1-.8.1.3.1.6.1.8M23.9 276q.3.1.6.1-.3 0-.6-.1m3-48.2c-2.7 4.1-2.7 9.3-5.1 13.5-2.7 4.7-4.9 9.5-5.7 14.9-.3 2.1-.1 4 .3 6q-.2.1-.4.3l-.1.1c-.1-.9-.4-1.7-1-2.4q-.2-.7-.5-1.4-.5-1.9-.9-3.9c-.1.3-.2.5-.3.7h-.1v.1c.2.6.3 1.3.4 1.9-.1-.6-.2-1.3-.4-1.9v-.1q.1-.3.4-.7-.3-.4-.5-.8c.5-2.2-.1-4.4-.1-6.6v-.2c.6-4.6 2.3-8.8 4.4-12.9q.2-.4.5-.8l2.8-4q2.9-2.9 5.7-5.8l2-2q.4-.2.9-.4 0-.1-.1-.2v-.3c2-1 3.3-3 5.4-3.8q.1.2.2.3v.1q.1.2.2.5c-3.5 2.6-5.5 6.4-8 9.8m-13.8 27.9c-.4.4-.9-1-1.2-.5.3-.5.8.9 1.2.5m19.6-48.2c.2.5-.2.9-.7 1q-.5.1-.9.1c-1.8 0-1.4-.7-.5-1.6q.2-.1.4-.1c.7-.3 1.5-.3 1.7.6m13.1-.4q-.1-.2-.2-.3.2.1.2.3m172.8-58.5c.1.2.4.2.5.4-.1-.2-.4-.2-.5-.4m-10.6 7.1q-.1.1-.2.1 0-.1.1-.2 0 .1.1.1m13.2-2.9q-.3-.1-.5-.3.3.1.5.2zm-27.6 6.7c-1.3-.1-2.1-.5-1.4-2 .3.7.8 1.4 1.4 2m-1.7-4.7q.1 0 .1.1 0-.1-.1-.1m9.4 8v-.1q.5 0 1.1-.1-.6.1-1.1.2m27.2-5.5h.1zm6.8-7.2q-.1.1-.2.1.1 0 .2-.1m-44.1 4q-.1.1 0 .2-.1-.1 0-.2m-97.7 29q0 .1-.1.1v-.1zm11-1.4v.1zm-5.3-6.9q.1.1.1.2 0-.1-.1-.2M85 187.3q0 .1-.1.1v-.1zm-1.1-1.8q.2.1.3.2-.1-.1-.3-.2m158.7-30.7c-1.3.7-1.5-.5-2.1-1.2 1-.1 2.1-1 2.8.2.3.4-.3.8-.7 1m4.8-2.4c-.3.1-.7.1-.8-.4q0-.1-.1-.2v-.5c0-.5.3-.9 1-1.1q.1-.1.2-.1c.3-.1.5-.3.8-.5h.1q.2.4.4.7c.1.4.3.7.1 1.1q-.1.3-.4.5-.2.2-.5.4c-.2-.1-.5.1-.8.1m64.2-5.1v-.1q0 .1.1.1-.1 0-.2.1zm-46.5 1.3h-.1zm-11 0h.1zh.1zm-42.6 4.2c-.3-1.4-.9-1.9-2-1.8.3.3.5.8 1.1 1.3-.6-.5-.8-1-1.2-1.3h.1-.1.1-.1.1c1.1-.1 1.7.4 2 1.8m-26.6 4.4c-.4 1.1-1.5.3-1.8 1h-.3c-.3 0-.6-.1-.8-.5.7-2.2 1.7-1.4 2.9-.5m-23.9 1.9c.1-.7-.1-1.7.8-1.7 1 0 .5 1 .6 1.6h.1q0 .1-.1.1c-.4.4-.8.8-1.4.5zm-22 6.2h-.1zm-11.2-1.4c-.8.6-2.1.9-2 2-.1-1.1 1.2-1.4 2-2m-10.9 4.8q.1.3.3.5c.6.9 1.4 1.6 2.5 1.8l-.2.2c-1 .7-.8 2.6-2.3 2.7h-.3c-.4-.5-.7-1-1.5-.8v-.2q0-.1.1-.2v-.6c1.5-.2.7-1.3.8-2.1q0-.2.1-.3.3-.5.5-1m-19 6.4c-.2-.3-.6-.4-.9-.7.3.3.7.4.9.7m-23.7 10.8q.2.1.4.1c.4 0 .7 0 .9.3q.1 0 .1.1c-.4.4.5 1.7-.7 1.4-.9-.1-1.3-.9-.7-1.9m-31.6 12.6H44q.1.1.2.1c.4.2.9.2 1.4.4.3.1.6.3.7.7q.1.2.1.6-.3.2-.5.4-.2 0-.4-.1c-1.1-.3-2.3-.2-2.9-1.3q-.1-.2-.1-.5 0-.2.1-.3m-27.9 22.4h.1q0 1-.1 1.9c-.7.3 0 1.9-.8 2.1-.2.1-.5.1-1-.2-.5-.9-1-1.7-1.8-2.2q-.1-.1-.2-.1.1-.4.1-.8v-.1c1.4 1 2.4-1.1 3.7-.6m-5.5 3.8-.2.2v-.1q.1 0 .2-.1m-7.9 10.6 1.8-.3zm287.1 103.2c.9 0 1.8-.1 2.7-.2-.6.4-1.7.3-2.7.2m8.9.3q.5 0 1.1.1-.5 0-1.1-.1M598 188.7q.1.1.3.2-.2-.1-.3-.2m-53.1-23.9q-.4-.1-.7-.2c-.7-.4-.7-1-.4-1.8l.2-.4c.7.7 1.8 1.1.9 2.4m88.3 72.9"/>
</svg>
