<svg xmlns="http://www.w3.org/2000/svg" version="1.0" width="1254.667" height="233.333" viewBox="0 0 941 175"><path fill="#fff" d="M378.5 16c-51.7.5-117.8 1.3-147 1.9-29.1.7-86.3 1.6-127 2.1-81.2 1.1-95.4 1.9-94.2 5.3.2.6 1.8 1.6 3.6 2.2s3 1.3 2.7 1.6c-.4.3.3 3.2 1.5 6.5 1.7 4.8 2.1 8.3 2.2 18.9.1 18.3-1.1 57.8-2.5 78.5-1.7 25.7-1.6 26.6.9 29.1 1.6 1.6 4 2.4 10 3 12.3 1.4 151.9 2.1 188.8 1 31.2-1 66.8-2.6 115.5-5.2 32.2-1.7 189-2.2 277-.9 172.1 2.5 197.6 3 223.5 4 14.9.6 33.3 1 41 .9s18.4.4 23.7 1.1c11.8 1.5 27.4 1 30.5-1 1.3-.8 2.7-2.8 3.3-4.4 1.5-4.4 1.2-36.9-.5-49.8-.8-6.2-2.2-18.5-3-27.3-2.6-25.6-8.6-49.8-13.9-55l-3.1-3.2-35-.6c-19.2-.4-44.4-1.3-56-2.2-33.5-2.3-68.1-4.4-94-5.6-30.9-1.4-226.8-1.9-348-.9"/><path xmlns="http://www.w3.org/2000/svg" d="M797.5 43.3c-9.4 3.2-15 8-18.5 16.1-1.8 3.8-2.2 6.6-2.1 13.9.2 14.5 4.1 20.4 16.7 24.9 9 3.2 17.8 3.5 26.3.9 3.8-1.2 7.3-2.6 7.6-3.1s4.3 2.8 8.8 7.5c10.6 10.8 21.6 16.2 25.5 12.3 3.8-3.8-1.7-13-12.7-21.5-4.8-3.7-9-6.9-9.4-7.3-.5-.4-.1-2.2.8-4 2.4-4.6 1.7-14.9-1.4-21.3-3.3-6.7-11.3-15.2-16.3-17.2-5.6-2.2-20.1-2.9-25.3-1.2m18.8 12.8c4.3 1.2 8.5 6.2 11.3 13.6 1.7 4.4 1.7 4.7-.2 8.1-1 2-3.8 5-6.2 6.6-3.5 2.5-5.5 3.1-11 3.4-8 .4-15.5-1.9-18.4-5.8-4.7-6.4-.8-22.5 6.2-25.4 4.1-1.8 13-2 18.3-.5"/></svg>