<svg xmlns="http://www.w3.org/2000/svg" version="1.0" width="1254.667" height="233.333" viewBox="0 0 941 175"><path fill="#fff" d="M378.5 16c-51.7.5-117.8 1.3-147 1.9-29.1.7-86.3 1.6-127 2.1-81.2 1.1-95.4 1.9-94.2 5.3.2.6 1.8 1.6 3.6 2.2s3 1.3 2.7 1.6c-.4.3.3 3.2 1.5 6.5 1.7 4.8 2.1 8.3 2.2 18.9.1 18.3-1.1 57.8-2.5 78.5-1.7 25.7-1.6 26.6.9 29.1 1.6 1.6 4 2.4 10 3 12.3 1.4 151.9 2.1 188.8 1 31.2-1 66.8-2.6 115.5-5.2 32.2-1.7 189-2.2 277-.9 172.1 2.5 197.6 3 223.5 4 14.9.6 33.3 1 41 .9s18.4.4 23.7 1.1c11.8 1.5 27.4 1 30.5-1 1.3-.8 2.7-2.8 3.3-4.4 1.5-4.4 1.2-36.9-.5-49.8-.8-6.2-2.2-18.5-3-27.3-2.6-25.6-8.6-49.8-13.9-55l-3.1-3.2-35-.6c-19.2-.4-44.4-1.3-56-2.2-33.5-2.3-68.1-4.4-94-5.6-30.9-1.4-226.8-1.9-348-.9"/><path d="M786.4 42.8c-4.9 3.6-11.7 11-14.1 15.3-1.4 2.6-1.8 5.6-1.8 12.9 0 8.4.3 10.1 2.7 14.7 3.4 6.4 8.6 11.5 14.7 14.5 6.5 3.2 23 3.2 31.1 0l5.5-2.2 2.4 3.3c7.9 10.2 20.9 21.9 31.9 28.7 8.4 5.1 15.2 4 15.2-2.6 0-5.1-13.9-20.6-28.3-31.3l-9.5-7.2 2.4-5.2c2.8-6.1 3-10.3.8-17.7-1.3-4.3-2.9-6.7-7.9-11.6-9.7-9.5-21.7-14.4-35.4-14.4-4.8 0-6.5.5-9.7 2.8m30.8 11.9c5.1 1.4 5.8 1.9 7.1 5.2 2.2 5.5 3 12.2 1.8 15.4-3 7.9-16.5 14-26.1 11.8-5-1.1-8.6-4.2-11.1-9.6-3.4-7.4-2.2-14.1 3.8-19.7 6.4-6.1 11-6.7 24.5-3.1" xmlns="http://www.w3.org/2000/svg"/></svg>