<?xml version="1.0" standalone="no"?>
<!DOCTYPE svg PUBLIC "-//W3C//DTD SVG 20010904//EN"
 "http://www.w3.org/TR/2001/REC-SVG-20010904/DTD/svg10.dtd">
<svg version="1.0" xmlns="http://www.w3.org/2000/svg"
 width="930.000000pt" height="174.000000pt" viewBox="0 0 930.000000 174.000000"
 preserveAspectRatio="xMidYMid meet">

<g transform="translate(0.000000,174.000000) scale(0.100000,-0.100000)"
fill="#000000" stroke="none">
<path d="M2645 1643 c-589 -15 -888 -25 -1095 -38 -135 -8 -324 -19 -420 -25
-96 -6 -238 -15 -315 -21 -77 -5 -244 -14 -371 -18 -235 -7 -264 -12 -264 -47
0 -21 37 -32 147 -44 243 -27 694 -23 1323 10 743 40 2945 59 3690 32 703 -25
1558 -42 2365 -47 869 -6 1249 -15 1267 -33 5 -5 16 -101 23 -213 8 -123 22
-241 35 -299 26 -118 49 -548 29 -561 -60 -37 -2483 -52 -3204 -20 -132 6
-422 20 -645 31 -223 11 -540 25 -705 32 -398 17 -1792 17 -2135 0 -306 -15
-906 -56 -1155 -78 -107 -9 -324 -17 -533 -19 -194 -2 -361 -7 -371 -10 -15
-4 -20 1 -25 27 -23 128 -13 343 24 521 43 214 71 498 51 535 -14 27 -52 29
-74 5 -21 -24 -75 -205 -82 -278 -4 -33 -15 -127 -25 -210 -27 -212 -39 -407
-35 -570 4 -138 4 -140 31 -164 23 -19 34 -22 68 -17 126 20 202 25 397 26
119 0 274 4 345 10 1092 84 1646 105 2606 97 387 -3 805 -12 983 -21 171 -9
483 -25 695 -36 1221 -63 2306 -75 3355 -36 454 17 499 23 547 73 47 49 51 93
34 355 -10 148 -23 271 -36 329 -12 52 -27 167 -35 257 -20 224 -48 327 -97
353 -33 18 -413 27 -1308 33 -443 3 -1014 12 -1270 21 -1017 34 -1386 45
-1640 50 -311 6 -2015 12 -2175 8z"/>
<path d="M7975 1317 c-94 -32 -150 -80 -185 -161 -18 -38 -22 -66 -21 -139 2
-145 41 -204 167 -249 90 -32 178 -35 263 -9 38 12 73 26 76 31 3 5 43 -28 88
-75 106 -108 216 -162 255 -123 38 38 -17 130 -127 215 -48 37 -90 69 -94 73
-5 4 -1 22 8 40 24 46 17 149 -14 213 -33 67 -113 152 -163 172 -56 22 -201
29 -253 12z m188 -128 c43 -12 85 -62 113 -136 17 -44 17 -47 -2 -81 -10 -20
-38 -50 -62 -66 -35 -25 -55 -31 -110 -34 -80 -4 -155 19 -184 58 -47 64 -8
225 62 254 41 18 130 20 183 5z"/>
</g>
</svg>
